<?xml version="1.0" encoding="UTF-8"?>
<svg version="1.1" xmlns="http://www.w3.org/2000/svg" width="600" height="600">
<path d="M0 0 C1.81048287 -0.00435869 3.6209639 -0.00954565 5.43144226 -0.01548767 C10.30579666 -0.02876756 15.18007299 -0.02946851 20.05444193 -0.02692437 C24.14655697 -0.02584668 28.23865673 -0.03075848 32.33076847 -0.03552979 C41.99965829 -0.04658792 51.66850927 -0.04708391 61.33740234 -0.04101562 C71.25698713 -0.0349849 81.17642975 -0.04727251 91.0959903 -0.06858569 C99.66046578 -0.08629946 108.22489641 -0.09218758 116.78938949 -0.08894795 C121.88325427 -0.08714974 126.97701772 -0.08962262 132.07086563 -0.10366249 C136.86945916 -0.11639584 141.66783411 -0.11415309 146.46642494 -0.1012516 C148.20885485 -0.0989192 149.9513009 -0.1014975 151.69371223 -0.10987473 C170.78657513 -0.19491494 190.39835903 1.83351459 208.46435547 8.2746582 C209.81815772 8.737964 211.17236217 9.20009536 212.52685547 9.66137695 C214.02701236 10.17784855 215.5270108 10.69478059 217.02685547 11.2121582 C218.08948608 11.57325684 218.08948608 11.57325684 219.17358398 11.94165039 C223.48792655 13.44724648 227.53139999 15.21505183 231.59057617 17.3125 C233.25187202 18.16555107 234.94432882 18.95730274 236.64013672 19.73950195 C248.95840441 25.52279824 261.28489732 33.20121764 271.46435547 42.2746582 C271.46435547 42.9346582 271.46435547 43.5946582 271.46435547 44.2746582 C272.04072754 44.52940918 272.61709961 44.78416016 273.2109375 45.04663086 C288.15408421 53.19007918 299.56658232 71.26614129 308.46435547 85.2746582 C308.8451123 85.86327637 309.22586914 86.45189453 309.61816406 87.05834961 C326.71652827 113.68964869 333.94221604 145.7787436 333.77685547 177.0871582 C333.77470032 177.82856049 333.77254517 178.56996277 333.77032471 179.33383179 C333.7166913 190.87229965 333.19666111 202.02617166 330.46435547 213.2746582 C330.27099609 214.0907959 330.07763672 214.90693359 329.87841797 215.74780273 C323.94999355 240.04244941 313.17772812 261.02240286 298.90185547 281.3996582 C298.48427979 281.99834717 298.0667041 282.59703613 297.63647461 283.21386719 C296.63193639 284.60712437 295.55469576 285.94747296 294.46435547 287.2746582 C293.80435547 287.2746582 293.14435547 287.2746582 292.46435547 287.2746582 C292.20267578 287.86375977 291.94099609 288.45286133 291.67138672 289.05981445 C290.40012797 291.39251254 289.06205016 292.87820188 287.15185547 294.7121582 C286.57822266 295.26774414 286.00458984 295.82333008 285.41357422 296.39575195 C284.77033203 297.01579102 284.12708984 297.63583008 283.46435547 298.2746582 C282.67029297 299.0687207 281.87623047 299.8627832 281.05810547 300.6809082 C247.53972382 334.19928986 201.9327645 352.20114325 154.68694401 352.42568874 C149.84210319 352.41631677 144.99781746 352.38186513 140.15320015 352.33509636 C136.18680792 352.30119901 132.22064228 352.28721145 128.25413513 352.28163147 C127.2391783 352.28003467 127.2391783 352.28003467 126.20371729 352.27840561 C124.823131 352.27626757 123.44254463 352.27418051 122.06195819 352.27214348 C112.86436952 352.25740921 103.66757239 352.22521952 94.47045898 352.12744141 C88.21207378 352.06110693 81.95484844 352.03436671 75.69611973 352.05199248 C72.40330974 352.0597067 69.11389135 352.04200778 65.82144356 351.98756218 C48.99656285 351.18481858 48.99656285 351.18481858 34.60473633 358.56982422 C32.85510204 360.43820632 31.13829143 362.3381639 29.46435547 364.2746582 C27.66011093 365.80952392 25.83048794 367.31566516 23.96435547 368.7746582 C19.9245241 372.06289304 15.93343482 375.40187246 11.96435547 378.7746582 C7.11615422 382.89449119 2.21589702 386.94261784 -2.71923828 390.95825195 C-5.8734955 393.55253008 -8.98770824 396.19068211 -12.09814453 398.8371582 C-15.84419784 402.02378923 -19.61370413 405.16256759 -23.47314453 408.2121582 C-27.50363214 411.40268959 -31.40111019 414.7225883 -35.28564453 418.0871582 C-39.99646848 422.16640278 -44.79189379 426.09016358 -49.72314453 429.8996582 C-55.05934356 434.02439583 -60.03705473 438.3781564 -64.98095703 442.9699707 C-68.6652669 446.29373649 -72.55977525 449.30993593 -76.53564453 452.2746582 C-77.85564453 451.6146582 -79.17564453 450.9546582 -80.53564453 450.2746582 C-80.86564453 412.3246582 -81.19564453 374.3746582 -81.53564453 335.2746582 C-90.44564453 330.3246582 -90.44564453 330.3246582 -99.53564453 325.2746582 C-103.93959628 322.3259253 -108.2532385 319.37909581 -112.53564453 316.2746582 C-113.69966797 315.48188477 -113.69966797 315.48188477 -114.88720703 314.6730957 C-116.47348031 313.59240753 -118.01295556 312.44323346 -119.53564453 311.2746582 C-119.53564453 310.6146582 -119.53564453 309.9546582 -119.53564453 309.2746582 C-120.11701172 309.00911133 -120.69837891 308.74356445 -121.29736328 308.4699707 C-128.31039529 304.72479131 -136.99365714 296.90062038 -139.53564453 289.2746582 C-140.52564453 288.9446582 -141.51564453 288.6146582 -142.53564453 288.2746582 C-144.40338704 285.97589819 -146.13996433 283.68703996 -147.84814453 281.2746582 C-148.34161377 280.58621826 -148.83508301 279.89777832 -149.34350586 279.18847656 C-150.3180128 277.8239741 -151.28874742 276.45676825 -152.25537109 275.08666992 C-153.26130718 273.66293658 -154.28240698 272.24991589 -155.30908203 270.84106445 C-167.1390933 254.07643522 -175.00959512 233.17227636 -179.53564453 213.2746582 C-179.78338623 212.19716309 -179.78338623 212.19716309 -180.03613281 211.09790039 C-185.29479744 186.87650198 -184.41533237 159.26066953 -178.53564453 135.2746582 C-178.35904297 134.52700195 -178.18244141 133.7793457 -178.00048828 133.0090332 C-171.01048212 104.2205634 -155.83575507 78.60857067 -135.53564453 57.2746582 C-135.02517578 56.73695801 -134.51470703 56.19925781 -133.98876953 55.64526367 C-122.9212128 44.06376374 -111.28315172 34.56649277 -97.53564453 26.2746582 C-96.61525391 25.70102539 -95.69486328 25.12739258 -94.74658203 24.53637695 C-87.24933396 19.97942428 -79.47452781 16.42746025 -71.39428711 13.05957031 C-69.57275277 12.29032916 -67.76869679 11.48011168 -65.96533203 10.66918945 C-62.62979189 9.31293908 -59.49099116 8.4529803 -55.97314453 7.7121582 C-51.70676507 6.80561659 -47.66570104 5.67191917 -43.53564453 4.2746582 C-29.15406855 0.67301135 -14.73513459 -0.02374842 0 0 Z " fill="#077EFE" transform="translate(224.53564453125,73.725341796875)"/>
<path d="M0 0 C1.03253906 0.70962891 1.03253906 0.70962891 2.0859375 1.43359375 C9.67011762 6.79482452 17.04913958 13.43347093 21 22 C21 22.99 21 23.98 21 25 C21.74121094 24.96519531 22.48242188 24.93039063 23.24609375 24.89453125 C30.06365317 24.7192941 36.4174937 25.19775246 43.125 26.375 C43.85904053 26.50108643 44.59308105 26.62717285 45.34936523 26.75708008 C48.8068636 27.40266772 51.03569656 28.02379771 54 30 C55.34964844 30.42925781 55.34964844 30.42925781 56.7265625 30.8671875 C66.64349642 34.29906201 76.39250229 40.8786126 83 49 C83.55042969 49.67417969 84.10085938 50.34835938 84.66796875 51.04296875 C91.53193032 60.34744998 94.29493575 71.55886177 93 83 C91.98279665 88.12489079 90.91361923 92.62957115 88 97 C88.29023619 101.12405374 89.86002557 103.56178978 92.3125 106.8125 C100.03580718 117.47952672 104.0457028 128.61109684 102 142 C99.10301748 153.48972728 92.53865389 162.07392889 84 170 C83.37738281 170.59039062 82.75476563 171.18078125 82.11328125 171.7890625 C68.5425549 183.19457184 52.0884915 186.3305117 35 186.125 C33.54297489 186.11495155 32.08594309 186.10582899 30.62890625 186.09765625 C27.08579671 186.07578711 23.54294188 186.04135977 20 186 C20 186.66 20 187.32 20 188 C18.9171875 188.61875 18.9171875 188.61875 17.8125 189.25 C15.00874451 190.99455897 13.53994941 192.80550379 11.52734375 195.37109375 C8.54960491 198.5468408 4.79372715 200.89817081 1 203 C0.34 203 -0.32 203 -1 203 C-1.33 203.99 -1.66 204.98 -2 206 C-21.70506373 216.3082311 -47.12577411 217.05256407 -68.21875 211.0703125 C-71 210 -71 210 -73 208 C-74.72730306 207.25041565 -76.45660915 206.5044395 -78.203125 205.80078125 C-80 205 -80 205 -82.5625 203.25 C-85.83357052 201.57252794 -87.44741609 202.1971074 -91 203 C-92.97536304 203.74816202 -94.9334912 204.5429248 -96.875 205.375 C-109.01665661 210.14049662 -120.99234179 211.58851354 -134 211 C-135.09054688 210.98066406 -136.18109375 210.96132813 -137.3046875 210.94140625 C-145.65348574 210.61105812 -152.43835715 208.48161973 -160 205 C-161.64355469 204.2575 -161.64355469 204.2575 -163.3203125 203.5 C-177.72685328 196.41593266 -186.44807923 185.81370117 -192 171 C-193.56044477 165.90340489 -194.22107061 161.30569458 -194 156 C-195.093125 155.690625 -196.18625 155.38125 -197.3125 155.0625 C-199.55407994 154.41662103 -201.7869351 153.7376883 -204 153 C-204 152.34 -204 151.68 -204 151 C-205.423125 151.0309375 -205.423125 151.0309375 -206.875 151.0625 C-210 151 -210 151 -212 150 C-212 149.34 -212 148.68 -212 148 C-212.825 147.79375 -213.65 147.5875 -214.5 147.375 C-226.0436409 142.83999822 -233.74840539 132.71948181 -238.8125 121.765625 C-243.07765434 111.83230503 -243.63716898 101.5871962 -240 91.3125 C-235.17419375 80.2185376 -227.00144641 68.78200307 -215.48046875 63.94140625 C-214.66191406 63.63074219 -213.84335938 63.32007813 -213 63 C-211.79730469 62.26330078 -211.79730469 62.26330078 -210.5703125 61.51171875 C-207.73755025 59.84564125 -204.9958075 58.83321524 -201.875 57.8125 C-200.84117187 57.46832031 -199.80734375 57.12414062 -198.7421875 56.76953125 C-196 56 -196 56 -193 56 C-193.0825 54.741875 -193.165 53.48375 -193.25 52.1875 C-193.2328801 41.29924609 -187.1615099 30.90235575 -180 23 C-179.34 23 -178.68 23 -178 23 C-178 22.34 -178 21.68 -178 21 C-176.09430869 19.4578746 -174.20977368 18.06228513 -172.1875 16.6875 C-171.59364502 16.28378174 -170.99979004 15.88006348 -170.38793945 15.46411133 C-150.30616344 2.10759507 -127.79426832 0.70068634 -104.484375 4.46484375 C-102 5 -102 5 -100 6 C-93.72333501 6.54953923 -90.35193793 5.58165955 -85.25 1.8125 C-79.11006173 -2.40391524 -73.09691997 -5.60619763 -66 -8 C-65.06671875 -8.31839844 -64.1334375 -8.63679687 -63.171875 -8.96484375 C-43.34893587 -14.59518117 -16.81916958 -12.69555078 0 0 Z " fill="#FDFEFE" transform="translate(370,147)"/>
<path d="M0 0 C0.33 0 0.66 0 1 0 C1 12.54 1 25.08 1 38 C0.67 37.34 0.34 36.68 0 36 C-0.66 36 -1.32 36 -2 36 C-2.04944066 31.35524041 -2.08573863 26.71063404 -2.10986328 22.06567383 C-2.11992041 20.48556856 -2.13356785 18.9054819 -2.15087891 17.32543945 C-2.17514022 15.0541525 -2.18648582 12.78311164 -2.1953125 10.51171875 C-2.20563507 9.80536789 -2.21595764 9.09901703 -2.22659302 8.3712616 C-2.22743775 4.67802208 -2.10720523 3.16080784 0 0 Z " fill="#059CFB" transform="translate(44,229)"/>
<path d="M0 0 C2 1 2 1 2.8515625 3.50390625 C3.10679688 4.51324219 3.36203125 5.52257812 3.625 6.5625 C3.88539062 7.57441406 4.14578125 8.58632813 4.4140625 9.62890625 C4.60742188 10.41136719 4.80078125 11.19382812 5 12 C5.66 12 6.32 12 7 12 C7.20496094 12.55429687 7.40992187 13.10859375 7.62109375 13.6796875 C7.89050781 14.40414063 8.15992187 15.12859375 8.4375 15.875 C8.70433594 16.59429687 8.97117187 17.31359375 9.24609375 18.0546875 C9.97916854 20.03648845 9.97916854 20.03648845 11 22 C10.01 22.33 9.02 22.66 8 23 C-2 5.38297872 -2 5.38297872 -2 2 C-1.34 2 -0.68 2 0 2 C0 1.34 0 0.68 0 0 Z " fill="#0F83F9" transform="translate(57,314)"/>
<path d="M0 0 C9.0425412 1.07284387 14.90878299 5.67336713 22 11 C21.67 11.99 21.34 12.98 21 14 C19.51515588 13.60404157 18.0371169 13.18249294 16.5625 12.75 C15.32693359 12.40195313 15.32693359 12.40195313 14.06640625 12.046875 C12 11 12 11 11.21484375 8.890625 C11.14394531 8.26671875 11.07304687 7.6428125 11 7 C9.35 6.67 7.7 6.34 6 6 C6 5.01 6 4.02 6 3 C5.38125 2.87625 4.7625 2.7525 4.125 2.625 C2 2 2 2 0 0 Z " fill="#0E82ED" transform="translate(466,99)"/>
<path d="M0 0 C-1 1 -1 1 -3.5625 1.0625 C-4.7690625 1.0315625 -4.7690625 1.0315625 -6 1 C-6 1.66 -6 2.32 -6 3 C-15.39605802 3.10731538 -24.64087671 2.99263429 -34 2 C-34 1.67 -34 1.34 -34 1 C-33.26885986 0.97494385 -32.53771973 0.9498877 -31.78442383 0.92407227 C-28.46028583 0.80777359 -25.13640759 0.68520072 -21.8125 0.5625 C-20.66201172 0.52318359 -19.51152344 0.48386719 -18.32617188 0.44335938 C-17.21435547 0.40146484 -16.10253906 0.35957031 -14.95703125 0.31640625 C-13.93585205 0.27974854 -12.91467285 0.24309082 -11.86254883 0.20532227 C-9.00647989 0.06089045 -9.00647989 0.06089045 -6.2722168 -0.54711914 C-3.81050351 -1.03776899 -2.35688622 -0.78562874 0 0 Z " fill="#55A0E4" transform="translate(350,360)"/>
<path d="M0 0 C1.00869141 0.00902344 2.01738281 0.01804688 3.05664062 0.02734375 C5.51718457 0.05066644 7.97720896 0.08339237 10.4375 0.125 C10.4375 0.455 10.4375 0.785 10.4375 1.125 C4.1675 1.125 -2.1025 1.125 -8.5625 1.125 C-8.8925 2.115 -9.2225 3.105 -9.5625 4.125 C-14.1825 4.125 -18.8025 4.125 -23.5625 4.125 C-16.53991376 -0.55672416 -8.16687524 -0.14052863 0 0 Z " fill="#B3D9F6" transform="translate(243.5625,149.875)"/>
<path d="M0 0 C-0.66 2.31 -1.32 4.62 -2 7 C-3.32 7.33 -4.64 7.66 -6 8 C-6.12375 8.804375 -6.2475 9.60875 -6.375 10.4375 C-6.58125 11.283125 -6.7875 12.12875 -7 13 C-7.99 13.495 -7.99 13.495 -9 14 C-10 11 -10 11 -8.85546875 8.5546875 C-8.30503906 7.67039063 -7.75460938 6.78609375 -7.1875 5.875 C-6.64480469 4.98554688 -6.10210937 4.09609375 -5.54296875 3.1796875 C-3.787402 0.69967169 -3.04207776 0 0 0 Z " fill="#0E81F8" transform="translate(72,157)"/>
<path d="M0 0 C1.32 0.66 2.64 1.32 4 2 C0.50640535 5.59634744 -3.11098131 8.83451967 -7 12 C-7.33 10.68 -7.66 9.36 -8 8 C-7.34 8 -6.68 8 -6 8 C-6 7.34 -6 6.68 -6 6 C-5.34 6 -4.68 6 -4 6 C-4 5.34 -4 4.68 -4 4 C-3.34 4 -2.68 4 -2 4 C-2 3.34 -2 2.68 -2 2 C-1.34 2 -0.68 2 0 2 C0 1.34 0 0.68 0 0 Z " fill="#1178EA" transform="translate(506,368)"/>
<path d="M0 0 C2.60478883 -0.0809313 5.20706653 -0.14045434 7.8125 -0.1875 C8.55048828 -0.21263672 9.28847656 -0.23777344 10.04882812 -0.26367188 C15.54974762 -0.33834499 15.54974762 -0.33834499 18.01171875 1.51171875 C18.50091797 2.24841797 18.50091797 2.24841797 19 3 C12.56744599 3.12086218 6.38226945 2.82351864 0 2 C0 1.34 0 0.68 0 0 Z " fill="#187FF2" transform="translate(380,422)"/>
<path d="M0 0 C0.33 0.66 0.66 1.32 1 2 C1.66 2 2.32 2 3 2 C3 2.66 3 3.32 3 4 C3.66 4 4.32 4 5 4 C5 5.32 5 6.64 5 8 C6.32 8.66 7.64 9.32 9 10 C8.67 10.99 8.34 11.98 8 13 C4.62772951 11.60632076 3.09506287 10.15724701 1.1875 7.0625 C0.74792969 6.37285156 0.30835937 5.68320312 -0.14453125 4.97265625 C-1 3 -1 3 0 0 Z " fill="#1183ED" transform="translate(71,342)"/>
<path d="M0 0 C0.33 1.32 0.66 2.64 1 4 C-3.455 7.96 -3.455 7.96 -8 12 C-8.66 11.67 -9.32 11.34 -10 11 C-9.67 10.01 -9.34 9.02 -9 8 C-8.34 8 -7.68 8 -7 8 C-7 7.34 -7 6.68 -7 6 C-6.34 6 -5.68 6 -5 6 C-5 5.34 -5 4.68 -5 4 C-4.34 4 -3.68 4 -3 4 C-3 3.34 -3 2.68 -3 2 C-2.01 1.34 -1.02 0.68 0 0 Z " fill="#0E8BF6" transform="translate(199,478)"/>
<path d="M0 0 C0.66 0.33 1.32 0.66 2 1 C1.39005934 4.06325753 0.42271989 6.20050634 -1.375 8.75 C-1.79523437 9.36359375 -2.21546875 9.9771875 -2.6484375 10.609375 C-3.09445312 11.06828125 -3.54046875 11.5271875 -4 12 C-4.99 12 -5.98 12 -7 12 C-7 11.34 -7 10.68 -7 10 C-6.34 10 -5.68 10 -5 10 C-5 8.68 -5 7.36 -5 6 C-4.34 6 -3.68 6 -3 6 C-3 5.34 -3 4.68 -3 4 C-2.34 4 -1.68 4 -1 4 C-0.67 2.68 -0.34 1.36 0 0 Z " fill="#1081F4" transform="translate(529,340)"/>
<path d="M0 0 C2.98093122 2.5550839 4.52359755 5.38281401 6 9 C5.8125 11.3125 5.8125 11.3125 5 13 C4.01 13.495 4.01 13.495 3 14 C3 12.35 3 10.7 3 9 C2.34 9 1.68 9 1 9 C1 7.35 1 5.7 1 4 C0.34 4 -0.32 4 -1 4 C-0.67 2.68 -0.34 1.36 0 0 Z " fill="#1185F8" transform="translate(539,173)"/>
<path d="M0 0 C1.35439668 2.70879335 1.06501451 5.00933268 1 8 C0.401875 8.12375 -0.19625 8.2475 -0.8125 8.375 C-3.26231348 8.95475985 -3.26231348 8.95475985 -6 11 C-6.99 10.67 -7.98 10.34 -9 10 C-8.27683594 9.29423828 -8.27683594 9.29423828 -7.5390625 8.57421875 C-6.90742188 7.95160156 -6.27578125 7.32898438 -5.625 6.6875 C-4.68527344 5.76517578 -4.68527344 5.76517578 -3.7265625 4.82421875 C-1.81913393 2.91187472 -1.81913393 2.91187472 0 0 Z " fill="#3A95F0" transform="translate(463,306)"/>
<path d="M0 0 C0.99 0.33 1.98 0.66 3 1 C3.25 7.625 3.25 7.625 1 11 C0.34 11 -0.32 11 -1 11 C-1.0270043 9.54176788 -1.04639787 8.08339325 -1.0625 6.625 C-1.07410156 5.81289063 -1.08570313 5.00078125 -1.09765625 4.1640625 C-1 2 -1 2 0 0 Z " fill="#0B87F7" transform="translate(555,260)"/>
<path d="M0 0 C1.65 0.33 3.3 0.66 5 1 C2.86209051 3.35170044 0.99406599 4.88791835 -2 6 C-5.25 6.125 -5.25 6.125 -8 6 C-8 5.34 -8 4.68 -8 4 C-6.68 4 -5.36 4 -4 4 C-4 3.34 -4 2.68 -4 2 C-2.68 2 -1.36 2 0 2 C0 1.34 0 0.68 0 0 Z " fill="#1280F5" transform="translate(464,400)"/>
<path d="M0 0 C0.33 1.32 0.66 2.64 1 4 C-1.67235841 7.13047699 -4.64019009 9.63568932 -8 12 C-8.66 11.34 -9.32 10.68 -10 10 C-6.7 6.7 -3.4 3.4 0 0 Z " fill="#0B91FE" transform="translate(100,120)"/>
<path d="M0 0 C0 0.66 0 1.32 0 2 C-1.609375 3.54296875 -1.609375 3.54296875 -3.75 5.1875 C-4.44609375 5.73792969 -5.1421875 6.28835938 -5.859375 6.85546875 C-8 8 -8 8 -10.265625 7.67578125 C-10.83796875 7.45277344 -11.4103125 7.22976563 -12 7 C-10.68 6.34 -9.36 5.68 -8 5 C-8 4.34 -8 3.68 -8 3 C-7.34 3 -6.68 3 -6 3 C-6 2.34 -6 1.68 -6 1 C-3 0 -3 0 0 0 Z " fill="#0E86F2" transform="translate(176,501)"/>
<path d="M0 0 C3.465 1.485 3.465 1.485 7 3 C7 3.66 7 4.32 7 5 C9.64 5.33 12.28 5.66 15 6 C15 6.66 15 7.32 15 8 C15.99 8.33 16.98 8.66 18 9 C16.35 9 14.7 9 13 9 C13 8.34 13 7.68 13 7 C12.113125 7.061875 11.22625 7.12375 10.3125 7.1875 C6.63527631 6.97935526 4.90037545 6.21793417 2 4 C2 3.34 2 2.68 2 2 C1.34 2 0.68 2 0 2 C0 1.34 0 0.68 0 0 Z " fill="#4399EF" transform="translate(151,292)"/>
<path d="M0 0 C0.66 0 1.32 0 2 0 C1.67 1.65 1.34 3.3 1 5 C1.66 5 2.32 5 3 5 C3 5.66 3 6.32 3 7 C1.68 6.67 0.36 6.34 -1 6 C-1.33 6.99 -1.66 7.98 -2 9 C-4.5625 10.1875 -4.5625 10.1875 -7 11 C-5.88368586 9.16136495 -4.75670373 7.32920277 -3.625 5.5 C-2.99851562 4.4790625 -2.37203125 3.458125 -1.7265625 2.40625 C-1.15679687 1.6121875 -0.58703125 0.818125 0 0 Z " fill="#0A73E7" transform="translate(75,147)"/>
<path d="M0 0 C0.98484375 0.11085938 1.9696875 0.22171875 2.984375 0.3359375 C3.73203125 0.43132812 4.4796875 0.52671875 5.25 0.625 C2.56907309 3.30592691 0.85832637 3.01170257 -2.875 3.25 C-3.97070312 3.32476562 -5.06640625 3.39953125 -6.1953125 3.4765625 C-7.03835938 3.52554688 -7.88140625 3.57453125 -8.75 3.625 C-9.08 2.965 -9.41 2.305 -9.75 1.625 C-6.30824478 -0.52199969 -3.9779708 -0.47356795 0 0 Z " fill="#0260DB" transform="translate(393.75,74.375)"/>
<path d="M0 0 C0.33 0.99 0.66 1.98 1 3 C-0.14453125 5.26171875 -0.14453125 5.26171875 -1.8125 7.6875 C-2.35519531 8.49574219 -2.89789063 9.30398437 -3.45703125 10.13671875 C-3.96621094 10.75160156 -4.47539062 11.36648437 -5 12 C-5.66 12 -6.32 12 -7 12 C-7 12.99 -7 13.98 -7 15 C-7.66 15 -8.32 15 -9 15 C-7.00032606 9.33425718 -3.63809789 4.72952725 0 0 Z " fill="#CAE8F8" transform="translate(141,221)"/>
<path d="M0 0 C-2.28827539 2.28827539 -3.27122511 2.42255351 -6.375 3 C-8.88338802 3.46979843 -10.79635139 3.88764215 -13.0390625 5.125 C-15.45356632 6.20238816 -16.5592422 5.87169922 -19 5 C-17.06305322 4.18618205 -15.12542289 3.37399084 -13.1875 2.5625 C-12.10855469 2.11003906 -11.02960938 1.65757812 -9.91796875 1.19140625 C-3.97706835 -1.23426259 -3.97706835 -1.23426259 0 0 Z " fill="#B6DCF5" transform="translate(311,139)"/>
<path d="M0 0 C1.32 0.33 2.64 0.66 4 1 C4 1.66 4 2.32 4 3 C2.25 4.5078125 2.25 4.5078125 0 6.125 C-0.7425 6.66382813 -1.485 7.20265625 -2.25 7.7578125 C-2.8275 8.16773438 -3.405 8.57765625 -4 9 C-4 8.34 -4 7.68 -4 7 C-4.66 6.67 -5.32 6.34 -6 6 C-5.34 6 -4.68 6 -4 6 C-3.34 4.68 -2.68 3.36 -2 2 C-1.34 2 -0.68 2 0 2 C0 1.34 0 0.68 0 0 Z " fill="#0D73F1" transform="translate(160,510)"/>
<path d="M0 0 C4.24846075 0.47205119 6.26819288 2.88877522 9 6 C9 6.66 9 7.32 9 8 C7.35 7.67 5.7 7.34 4 7 C4 6.34 4 5.68 4 5 C3.34 5 2.68 5 2 5 C2 4.34 2 3.68 2 3 C1.34 3 0.68 3 0 3 C0 2.01 0 1.02 0 0 Z " fill="#0F75E5" transform="translate(510,133)"/>
<path d="M0 0 C2.31 0.33 4.62 0.66 7 1 C6 3 6 3 3.6875 4.1875 C0.88010429 5.03624754 -0.301935 4.99928333 -3 4 C-3 3.34 -3 2.68 -3 2 C-2.01 2 -1.02 2 0 2 C0 1.34 0 0.68 0 0 Z " fill="#0E8DF3" transform="translate(436,412)"/>
<path d="M0 0 C0.99 0.33 1.98 0.66 3 1 C-0.26720791 5.38894929 -3.54898478 9.75259665 -7 14 C-7 12.68 -7 11.36 -7 10 C-6.34 10 -5.68 10 -5 10 C-4.34 8.02 -3.68 6.04 -3 4 C-2.34 4 -1.68 4 -1 4 C-0.67 2.68 -0.34 1.36 0 0 Z " fill="#2985EF" transform="translate(139,220)"/>
<path d="M0 0 C0.99 0.33 1.98 0.66 3 1 C2.25 2.9375 2.25 2.9375 1 5 C-1.125 5.75 -1.125 5.75 -3 6 C-3.33 5.34 -3.66 4.68 -4 4 C-2.68 2.68 -1.36 1.36 0 0 Z " fill="#0F8CFB" transform="translate(225,456)"/>
<path d="M0 0 C3.3 0 6.6 0 10 0 C10 0.99 10 1.98 10 3 C10.66 3.33 11.32 3.66 12 4 C7.80530429 3.40075776 3.99000166 2.42500059 0 1 C0 0.67 0 0.34 0 0 Z " fill="#117CF9" transform="translate(262,150)"/>
<path d="M0 0 C0.66 0.33 1.32 0.66 2 1 C1.360625 1.103125 0.72125 1.20625 0.0625 1.3125 C-0.618125 1.539375 -1.29875 1.76625 -2 2 C-2.33 2.99 -2.66 3.98 -3 5 C-5.5625 6.6875 -5.5625 6.6875 -8 8 C-8.99 7.34 -9.98 6.68 -11 6 C-10.113125 5.566875 -9.22625 5.13375 -8.3125 4.6875 C-5.03865593 3.08604236 -5.03865593 3.08604236 -2.25 1.25 C-1.5075 0.8375 -0.765 0.425 0 0 Z " fill="#CCE7F8" transform="translate(162,207)"/>
<path d="M0 0 C0.66 1.32 1.32 2.64 2 4 C0.6875 6 0.6875 6 -1 8 C-1.99 8 -2.98 8 -4 8 C-3.40138258 5.64828869 -2.73075648 3.3140622 -2 1 C-1.34 0.67 -0.68 0.34 0 0 Z " fill="#0B8DFB" transform="translate(57,181)"/>
<path d="M0 0 C2.97 0 5.94 0 9 0 C9 0.99 9 1.98 9 3 C2.25 3.125 2.25 3.125 0 2 C0 1.34 0 0.68 0 0 Z " fill="#1683F8" transform="translate(196,76)"/>
<path d="M0 0 C0 0.66 0 1.32 0 2 C-1.96147874 3.38938077 -3.96166576 4.7260411 -6 6 C-6.66 5.67 -7.32 5.34 -8 5 C-8 4.34 -8 3.68 -8 3 C-7.34 3 -6.68 3 -6 3 C-6 2.34 -6 1.68 -6 1 C-4 0 -4 0 0 0 Z " fill="#117DF4" transform="translate(260,431)"/>
<path d="M0 0 C0.66 0.33 1.32 0.66 2 1 C0.54744301 4.82946843 -1.42895561 6.12050295 -5 8 C-4.64950425 4.75791433 -4.43778819 3.38472296 -1.9375 1.1875 C-1.298125 0.795625 -0.65875 0.40375 0 0 Z " fill="#087CEF" transform="translate(106,115)"/>
<path d="M0 0 C3.3 0.33 6.6 0.66 10 1 C10 2.32 10 3.64 10 5 C9.01 5 8.02 5 7 5 C7 4.34 7 3.68 7 3 C4.69 2.34 2.38 1.68 0 1 C0 0.67 0 0.34 0 0 Z " fill="#0F8CFB" transform="translate(421,80)"/>
<path d="M0 0 C1.65 0.33 3.3 0.66 5 1 C5 1.66 5 2.32 5 3 C0.545 3.495 0.545 3.495 -4 4 C-4 3.34 -4 2.68 -4 2 C-2.68 2 -1.36 2 0 2 C0 1.34 0 0.68 0 0 Z " fill="#1285F2" transform="translate(452,406)"/>
<path d="M0 0 C0.99 0 1.98 0 3 0 C1.375 6.75 1.375 6.75 -2 9 C-3 6 -3 6 -1.5625 2.8125 C-1.046875 1.884375 -0.53125 0.95625 0 0 Z " fill="#0D97F7" transform="translate(65,162)"/>
<path d="M0 0 C0.99 0 1.98 0 3 0 C5 3 5 3 5 7 C4.01 6.67 3.02 6.34 2 6 C2 5.34 2 4.68 2 4 C1.34 4 0.68 4 0 4 C0 2.68 0 1.36 0 0 Z " fill="#1070E6" transform="translate(530,159)"/>
<path d="M0 0 C1.13199353 0.9080162 2.25532363 1.82683826 3.375 2.75 C4.00148438 3.26046875 4.62796875 3.7709375 5.2734375 4.296875 C7.08312318 6.08199481 8.00117455 7.67949644 9 10 C8.34 10 7.68 10 7 10 C6.34 9.01 5.68 8.02 5 7 C4.01 6.67 3.02 6.34 2 6 C2 5.34 2 4.68 2 4 C1.34 3.67 0.68 3.34 0 3 C0 2.01 0 1.02 0 0 Z " fill="#DAEFF8" transform="translate(378,154)"/>
<path d="M0 0 C0.99 0 1.98 0 3 0 C3 1.65 3 3.3 3 5 C1.35 5.33 -0.3 5.66 -2 6 C-2 4.68 -2 3.36 -2 2 C-1.34 2 -0.68 2 0 2 C0 1.34 0 0.68 0 0 Z " fill="#147EF1" transform="translate(238,444)"/>
<path d="M0 0 C1.65 0 3.3 0 5 0 C3.35 1.98 1.7 3.96 0 6 C-0.66 5.67 -1.32 5.34 -2 5 C-2 4.01 -2 3.02 -2 2 C-1.34 2 -0.68 2 0 2 C0 1.34 0 0.68 0 0 Z " fill="#0E84F0" transform="translate(500,374)"/>
<path d="M0 0 C1.98 0.99 1.98 0.99 4 2 C3.34 4.64 2.68 7.28 2 10 C-0.09350689 6.5980513 -0.17942163 3.94727588 0 0 Z " fill="#1772E5" transform="translate(552,280)"/>
<path d="M0 0 C-1.4096347 0.70180531 -2.82807641 1.38593958 -4.25 2.0625 C-5.03890625 2.44535156 -5.8278125 2.82820312 -6.640625 3.22265625 C-9.25993522 4.08564091 -10.44855176 3.93045933 -13 3 C-11.5903653 2.29819469 -10.17192359 1.61406042 -8.75 0.9375 C-7.96109375 0.55464844 -7.1721875 0.17179688 -6.359375 -0.22265625 C-3.74006478 -1.08564091 -2.55144824 -0.93045933 0 0 Z " fill="#BBE0F8" transform="translate(220,155)"/>
<path d="M0 0 C0.99 0.33 1.98 0.66 3 1 C2.34 4.63 1.68 8.26 1 12 C0.67 12 0.34 12 0 12 C0 8.04 0 4.08 0 0 Z " fill="#1E82F0" transform="translate(554,228)"/>
<path d="M0 0 C2.0625 0.1875 2.0625 0.1875 4 1 C4.33 1.99 4.66 2.98 5 4 C4.01 4.66 3.02 5.32 2 6 C0.66666667 4.66666667 -0.66666667 3.33333333 -2 2 C-1.34 1.34 -0.68 0.68 0 0 Z " fill="#1082F5" transform="translate(520,145)"/>
<path d="M0 0 C0.66 0.33 1.32 0.66 2 1 C1.1875 2.9375 1.1875 2.9375 0 5 C-0.99 5.33 -1.98 5.66 -3 6 C-3.33 4.68 -3.66 3.36 -4 2 C-2.125 0.9375 -2.125 0.9375 0 0 Z " fill="#0D6CF8" transform="translate(248,438)"/>
<path d="M0 0 C0.66 0.66 1.32 1.32 2 2 C1.625 5.125 1.625 5.125 1 8 C0.01 8 -0.98 8 -2 8 C-2 6.68 -2 5.36 -2 4 C-1.34 4 -0.68 4 0 4 C0 2.68 0 1.36 0 0 Z " fill="#1182F5" transform="translate(536,326)"/>
<path d="M0 0 C0.99 0 1.98 0 3 0 C3 2.31 3 4.62 3 7 C2.01 6.67 1.02 6.34 0 6 C0 4.02 0 2.04 0 0 Z " fill="#118BFB" transform="translate(47,288)"/>
<path d="M0 0 C0.99 0 1.98 0 3 0 C3 2.97 3 5.94 3 9 C0 6 0 6 -0.1875 2.8125 C-0.125625 1.884375 -0.06375 0.95625 0 0 Z " fill="#1E88F9" transform="translate(43,224)"/>
<path d="M0 0 C2.1385485 2.1385485 2.42655063 3.13275314 3 6 C2.01 6.495 2.01 6.495 1 7 C0.34 7.99 -0.32 8.98 -1 10 C-1.125 2.25 -1.125 2.25 0 0 Z " fill="#1475E4" transform="translate(551,204)"/>
<path d="M0 0 C0.99 0.66 1.98 1.32 3 2 C1.68 4.31 0.36 6.62 -1 9 C-2.0326802 6.21176345 -2.04509293 5.1322726 -1.0625 2.25 C-0.711875 1.5075 -0.36125 0.765 0 0 Z " fill="#0E90FB" transform="translate(52,190)"/>
<path d="M0 0 C0.33 0.99 0.66 1.98 1 3 C0.01 4.485 0.01 4.485 -1 6 C-1.66 6 -2.32 6 -3 6 C-3 6.99 -3 7.98 -3 9 C-3.66 9 -4.32 9 -5 9 C-3.90931332 5.22454612 -3.0916909 2.52956528 0 0 Z " fill="#C9E8F6" transform="translate(187,174)"/>
<path d="M0 0 C0.33 0.66 0.66 1.32 1 2 C1.66 2 2.32 2 3 2 C3.33 3.98 3.66 5.96 4 8 C2.02 6.35 0.04 4.7 -2 3 C-1.34 2.01 -0.68 1.02 0 0 Z " fill="#2A8AF2" transform="translate(377,148)"/>
<path d="M0 0 C0.99 0.66 1.98 1.32 3 2 C2.67 3.32 2.34 4.64 2 6 C0.02 5.34 -1.96 4.68 -4 4 C-2.68 2.68 -1.36 1.36 0 0 Z " fill="#0D7DEF" transform="translate(124,102)"/>
<path d="M0 0 C2.31 0.33 4.62 0.66 7 1 C5.25 2.5625 5.25 2.5625 3 4 C0.75 3.6875 0.75 3.6875 -1 3 C-0.67 2.01 -0.34 1.02 0 0 Z " fill="#1D7FF7" transform="translate(404,420)"/>
<path d="M0 0 C1.65 0 3.3 0 5 0 C5 1.32 5 2.64 5 4 C5.99 4.33 6.98 4.66 8 5 C6.68 5 5.36 5 4 5 C1.75 2.5 1.75 2.5 0 0 Z " fill="#D9F0F6" transform="translate(193,340)"/>
<path d="M0 0 C2.15377564 2.62198774 3.40072174 4.64404172 4 8 C2.68 8.33 1.36 8.66 0 9 C0 6.03 0 3.06 0 0 Z " fill="#3592ED" transform="translate(180,323)"/>
<path d="M0 0 C1.32 0.33 2.64 0.66 4 1 C4 2.98 4 4.96 4 7 C3.01 7.495 3.01 7.495 2 8 C2 6.68 2 5.36 2 4 C1.34 3.67 0.68 3.34 0 3 C0 2.01 0 1.02 0 0 Z " fill="#1282F2" transform="translate(544,189)"/>
<path d="M0 0 C1.65 0 3.3 0 5 0 C3.1875 2 3.1875 2 1 4 C0.01 4 -0.98 4 -2 4 C-1.34 2.68 -0.68 1.36 0 0 Z " fill="#0995FE" transform="translate(262,426)"/>
<path d="M0 0 C0.66 0.33 1.32 0.66 2 1 C2 1.99 2 2.98 2 4 C2.99 4 3.98 4 5 4 C4.67 5.32 4.34 6.64 4 8 C1.65941363 5.87219421 0.29299694 3.88437779 -1 1 C-0.67 0.67 -0.34 0.34 0 0 Z " fill="#0A72F9" transform="translate(66,336)"/>
<path d="M0 0 C0 0.66 0 1.32 0 2 C-0.66 2 -1.32 2 -2 2 C-2 2.99 -2 3.98 -2 5 C-4.97 4.505 -4.97 4.505 -8 4 C-2.7826087 0 -2.7826087 0 0 0 Z " fill="#3B94EC" transform="translate(442,325)"/>
<path d="M0 0 C0.33 0.66 0.66 1.32 1 2 C1.99 2 2.98 2 4 2 C3.34 3.65 2.68 5.3 2 7 C1.34 7 0.68 7 0 7 C0 4.69 0 2.38 0 0 Z " fill="#176ED0" transform="translate(554,264)"/>
<path d="M0 0 C0.33 1.32 0.66 2.64 1 4 C-2 6 -2 6 -5 6 C-5 5.34 -5 4.68 -5 4 C-4.34 4 -3.68 4 -3 4 C-3 3.34 -3 2.68 -3 2 C-2.01 1.34 -1.02 0.68 0 0 Z " fill="#1080F0" transform="translate(199,478)"/>
<path d="M0 0 C0.99 0.33 1.98 0.66 3 1 C0.69 2.65 -1.62 4.3 -4 6 C-4.33 5.34 -4.66 4.68 -5 4 C-4.67 3.34 -4.34 2.68 -4 2 C-2.68 2 -1.36 2 0 2 C0 1.34 0 0.68 0 0 Z " fill="#069FFA" transform="translate(204,476)"/>
<path d="M0 0 C0.99 0.33 1.98 0.66 3 1 C2.34 2.32 1.68 3.64 1 5 C0.01 5 -0.98 5 -2 5 C-2 4.01 -2 3.02 -2 2 C-1.34 2 -0.68 2 0 2 C0 1.34 0 0.68 0 0 Z " fill="#1383F8" transform="translate(510,364)"/>
<path d="M0 0 C0.33 1.32 0.66 2.64 1 4 C0.34 4 -0.32 4 -1 4 C-1 4.66 -1 5.32 -1 6 C-2.32 5.67 -3.64 5.34 -5 5 C-3.35 3.35 -1.7 1.7 0 0 Z " fill="#4B9AEB" transform="translate(387,335)"/>
<path d="M0 0 C0.33 0 0.66 0 1 0 C1 1.98 1 3.96 1 6 C0.01 6.33 -0.98 6.66 -2 7 C-2.125 4.625 -2.125 4.625 -2 2 C-1.34 1.34 -0.68 0.68 0 0 Z " fill="#1671E5" transform="translate(47,280)"/>
<path d="M0 0 C0.33 0.66 0.66 1.32 1 2 C2.65 2 4.3 2 6 2 C5.01 3.485 5.01 3.485 4 5 C2.68 5 1.36 5 0 5 C0 3.35 0 1.7 0 0 Z " fill="#1477F9" transform="translate(176,79)"/>
</svg>
